<?xml version="1.0" encoding="utf-8"?>
<!-- Generator: Adobe Illustrator 16.0.0, SVG Export Plug-In . SVG Version: 6.00 Build 0)  -->
<!DOCTYPE svg PUBLIC "-//W3C//DTD SVG 1.1//EN" "http://www.w3.org/Graphics/SVG/1.1/DTD/svg11.dtd">
<svg version="1.1" id="圖層_1" xmlns="http://www.w3.org/2000/svg" xmlns:xlink="http://www.w3.org/1999/xlink" x="0px" y="0px"
	 width="695.05px" height="695.05px" viewBox="152.475 152.475 695.05 695.05"
	 enable-background="new 152.475 152.475 695.05 695.05" xml:space="preserve">
<path fill="#5B4282" d="M567.843,506.134c-12.979-4.271-31.661-3.354-56.049-3.354h-97.98v127.89h104.78
	c16.37,0,27.869-1.752,34.491-2.975c11.672-2.092,21.43-6.14,29.271-11.021c7.834-4.871,14.279-12.261,19.339-21.58
	c5.049-9.319,7.579-20.224,7.579-32.418c0-14.279-3.659-25.244-10.982-35.786C590.974,516.348,580.826,510.404,567.843,506.134z
	 M554.393,447.66c12.883-3.826,22.598-10.509,29.13-19.389c6.539-8.886,9.804-20.189,9.804-33.607
	c0-12.711-3.053-23.988-9.153-33.663c-6.1-9.675-14.801-13.417-26.128-16.993c-11.326-3.564-30.748-2.48-58.273-2.48h-85.958
	v111.208h92.23C528.52,452.736,544.628,450.624,554.393,447.66L554.393,447.66z M847.525,244.917
	c0-51.055-41.387-92.441-92.441-92.441H244.917c-51.056,0-92.441,41.386-92.441,92.441v510.167
	c0,51.055,41.386,92.441,92.441,92.441h510.167c51.055,0,92.441-41.387,92.441-92.441V244.917z M650.426,612.57
	c-7.574,15.419-16.942,27.307-28.092,35.67c-11.153,8.363-25.138,15.458-41.947,19.729c-16.804,4.276-37.41,7.184-61.793,7.184
	H363.771V291.485h152.466c29.27,0,52.74,3.387,70.423,11.132c17.688,7.757,31.532,19.445,41.558,35.559
	c10.015,16.114,15.024,32.846,15.024,50.438c0,16.375-4.448,31.739-13.328,46.196c-8.885,14.468-22.303,26.1-40.241,34.985
	c23.165,6.795,40.98,18.372,53.437,34.741c12.455,16.376,18.683,35.709,18.683,58.006
	C661.791,580.487,658.005,597.157,650.426,612.57L650.426,612.57z"/>
</svg>
