<?xml version="1.0" encoding="utf-8"?>
<!-- Generator: Adobe Illustrator 16.0.0, SVG Export Plug-In . SVG Version: 6.00 Build 0)  -->
<!DOCTYPE svg PUBLIC "-//W3C//DTD SVG 1.1//EN" "http://www.w3.org/Graphics/SVG/1.1/DTD/svg11.dtd">
<svg version="1.1" id="圖層_1" xmlns="http://www.w3.org/2000/svg" xmlns:xlink="http://www.w3.org/1999/xlink" x="0px" y="0px"
	 width="695.055px" height="981.141px" viewBox="152.469 9.43 695.055 981.141"
	 enable-background="new 152.469 9.43 695.055 981.141" xml:space="preserve">
<path fill="#131313" d="M697.141,45.75h-57.688l59.992,65.102v30.992H575.883v-36.289h59.984l-59.984-65.102V9.43h121.258V45.75
	L697.141,45.75z M551.383,45.75h-57.688l59.992,65.102v30.992h-123.57v-36.289h59.992l-59.992-65.102V9.43h121.266V45.75z
	 M407.055,47.234h-62.25v56.805h62.25v37.805h-106.5V9.43h106.5V47.234z"/>
<path fill="#1572B6" d="M215.727,911.766l-63.258-709.477h695.055l-63.313,709.359L499.57,990.57L215.727,911.766L215.727,911.766z"
	/>
<path fill="#33A9DC" d="M500.008,930.25L730,866.484l54.109-606.18H500.008V930.25L500.008,930.25z"/>
<path fill="#FFFFFF" d="M500,517.344h115.141l7.961-89.102H500v-87.016h218.195l-2.086,23.344l-21.383,239.781H500V517.344z"/>
<path fill="#EBEBEB" d="M500.523,743.328l-0.383,0.109l-96.906-26.172l-6.203-69.398h-87.336l12.195,136.625l178.234,49.477
	l0.406-0.117v-90.523H500.523z"/>
<path fill="#FFFFFF" d="M607.75,600.672l-10.484,116.531l-97.047,26.195v90.531l178.383-49.438l1.313-14.703l15.141-169.117H607.75
	L607.75,600.672z"/>
<path fill="#EBEBEB" d="M500.305,341.227v87.008h-210.18l-1.75-19.555l-3.961-44.109l-2.086-23.344H500.305z M500,517.352v87.016
	h-95.68l-1.742-19.555l-3.969-44.117l-2.086-23.344H500z"/>
</svg>
