<?xml version="1.0" encoding="utf-8"?>
<!-- Generator: Adobe Illustrator 16.0.0, SVG Export Plug-In . SVG Version: 6.00 Build 0)  -->
<!DOCTYPE svg PUBLIC "-//W3C//DTD SVG 1.1//EN" "http://www.w3.org/Graphics/SVG/1.1/DTD/svg11.dtd">
<svg version="1.1" id="圖層_1" xmlns="http://www.w3.org/2000/svg" xmlns:xlink="http://www.w3.org/1999/xlink" x="0px" y="0px"
	 width="695.05px" height="695.05px" viewBox="152.475 152.475 695.05 695.05"
	 enable-background="new 152.475 152.475 695.05 695.05" xml:space="preserve">
<g>
	<g>
		<path fill="#E34F26" d="M215.679,776.934l-63.223-624.458H847.91l-63.223,624.458l-285.275,70.592"/>
	</g>
	<path fill="#EF652A" d="M500.954,793.225l229.763-55.659l53.971-534.862H500.954"/>
	<path fill="#EBEBEB" d="M500.954,434.84H385.302l-7.71-78.737h123.362v-76.021H281.986l23.13,232.137h195.837V434.84z
		 M499.412,634.395l-97.147-23.078l-6.168-61.088h-86.354l10.794,120.819l178.875,43.44V634.395z"/>
	<path fill="#FFFFFF" d="M499.412,434.84v77.379h107.941l-10.794,99.098l-97.147,23.078v80.094l178.875-43.44L702.96,434.84H499.412
		z M499.412,280.082v76.021H710.67l7.71-76.021H499.412z"/>
</g>
</svg>
