<?xml version="1.0" encoding="utf-8"?>
<!-- Generator: Adobe Illustrator 16.0.0, SVG Export Plug-In . SVG Version: 6.00 Build 0)  -->
<!DOCTYPE svg PUBLIC "-//W3C//DTD SVG 1.1//EN" "http://www.w3.org/Graphics/SVG/1.1/DTD/svg11.dtd">
<svg version="1.1" id="圖層_1" xmlns="http://www.w3.org/2000/svg" xmlns:xlink="http://www.w3.org/1999/xlink" x="0px" y="0px"
	 width="695.05px" height="695.05px" viewBox="-197.525 -197.525 695.05 695.05"
	 enable-background="new -197.525 -197.525 695.05 695.05" xml:space="preserve">
<g transform="translate(0 -130.746)">
	
		<radialGradient id="SVGID_1_" cx="-148.957" cy="396.2684" r="480.9035" gradientTransform="matrix(1 0 0 -1 190.978 499.7029)" gradientUnits="userSpaceOnUse">
		<stop  offset="0" style="stop-color:#423325;stop-opacity:0.98"/>
		<stop  offset="1" style="stop-color:#1C0A00"/>
	</radialGradient>
	<path fill="url(#SVGID_1_)" d="M-166.392-35.639h632.774v632.77h-632.774V-35.639z"/>
	<path fill="#FF7F18" d="M-168.564-37.077h637.129v635.646h-637.129V-37.077z M-197.525,628.271h695.051v-695.05h-695.051V628.271z
		 M257.732,180.944c0-2.377,0.869-3.566,3.475-3.566h45.469c2.316,0,3.475,0.893,3.475,3.566v234.358
		c0,2.373-0.578,3.563-3.475,3.563h-44.889c-2.896,0-3.766-1.484-3.766-3.86V180.944H257.732z M254.547,113.525
		c0-19.01,13.033-30.298,29.539-30.298c17.666,0,29.541,12.177,29.541,30.298c0,19.603-12.453,30.296-30.119,30.296
		c-16.797-0.007-28.961-10.699-28.961-30.305V113.525z M124.226,278.673c-8.109-32.971-27.221-104.851-34.463-139.604h-0.579
		c-6.082,34.753-21.432,93.563-33.595,139.604H124.226z M43.715,326.794l-22.878,89.101c-0.579,2.373-1.448,2.969-4.345,2.969
		h-42.571c-2.896,0-3.476-0.895-2.896-4.455l82.248-295.252c1.448-5.344,2.316-10.098,2.896-24.652c0-2.086,0.869-2.971,2.317-2.971
		h60.816c2.027,0,2.896,0.593,3.476,2.971l92.094,320.5c0.58,2.373,0,3.86-2.316,3.86H164.48c-2.316,0-3.766-0.596-4.344-2.673
		l-23.748-89.406H43.715V326.794z"/>
</g>
</svg>
