<?xml version="1.0" encoding="utf-8"?>
<!-- Generator: Adobe Illustrator 16.0.0, SVG Export Plug-In . SVG Version: 6.00 Build 0)  -->
<!DOCTYPE svg PUBLIC "-//W3C//DTD SVG 1.1//EN" "http://www.w3.org/Graphics/SVG/1.1/DTD/svg11.dtd">
<svg version="1.1" id="圖層_1" xmlns="http://www.w3.org/2000/svg" xmlns:xlink="http://www.w3.org/1999/xlink" x="0px" y="0px"
	 width="696.025px" height="981.14px" viewBox="-309.219 -435.275 696.025 981.14"
	 enable-background="new -309.219 -435.275 696.025 981.14" xml:space="preserve">
<path fill="#E6A329" d="M387.781-243.013h-697l65.344,708.581l283.121,80.297l283.123-80.297L387.781-243.013z"/>
<path fill="#F1BF22" d="M39.246-185.284v671.099l229.389-64.989l55.804-606.11H39.246z"/>
<path fill="#FFFFFF" d="M221.744-98.354h-352.711l-24.562,265.273l0.502-1.655h299.644l-9.754,112.243l-95.608,27.499l-97.02-27.95
	l-5.805-67.926h-88.061l12.554,135.739l178.331,50.623l178.408-50.623l24.563-266.444H-75.777l4.08-88.771H148.94l3.302,50.863
	h88.805L221.744-98.354z"/>
<path fill="#EBEBEB" d="M39.325-98.354h-170.292l-24.562,265.273l0.502-1.655H39.316V78.729H-63.378l4.08-88.771h98.623V-98.354z
	 M-63.378,209.174h-88.27l12.563,135.669l178.331,50.563v-90.278l-97.02-28.02L-63.378,209.174z"/>
<path fill="#231F20" d="M-28.524-347.522h-62.051v44.546H15.888v-132.3h-44.359L-28.524-347.522z M169.11-434.565H60.95v46.31
	c14.442,14.442,21.971,21.392,43.25,42.311H60.95v42.232h108.151v-42.158l-43.206-42.311h43.25L169.11-434.565z"/>
</svg>
