<?xml version="1.0" encoding="utf-8"?>
<!-- Generator: Adobe Illustrator 16.0.0, SVG Export Plug-In . SVG Version: 6.00 Build 0)  -->
<!DOCTYPE svg PUBLIC "-//W3C//DTD SVG 1.1//EN" "http://www.w3.org/Graphics/SVG/1.1/DTD/svg11.dtd">
<svg version="1.1" id="圖層_1" xmlns="http://www.w3.org/2000/svg" xmlns:xlink="http://www.w3.org/1999/xlink" x="0px" y="0px"
	 width="695.05px" height="695.05px" viewBox="152.475 152.475 695.05 695.05"
	 enable-background="new 152.475 152.475 695.05 695.05" xml:space="preserve">
<g>
	<path fill="#0868AC" d="M281.637,258.83c-44.234,60.287-38.729,138.73-4.934,202.8l2.473,4.553l1.583,2.888l0.987,1.66l1.763,2.99
		c1.046,1.751,2.124,3.492,3.225,5.244l1.841,2.875c1.221,1.86,2.467,3.71,3.742,5.553l1.594,2.333
		c1.763,2.494,3.562,4.976,5.421,7.424l0.157,0.188l0.915,1.169c1.607,2.1,3.261,4.177,4.94,6.238l1.858,2.241
		c1.498,1.787,3.02,3.555,4.566,5.33l1.745,1.974c2.076,2.317,4.2,4.635,6.36,6.895l0.126,0.126l0.248,0.257
		c2.111,2.185,4.271,4.325,6.467,6.465l2.07,1.979c1.696,1.622,3.423,3.214,5.162,4.801l2.112,1.904
		c2.329,2.078,4.675,4.122,7.075,6.106l0.109,0.091l1.233,0.993c2.112,1.74,4.26,3.452,6.425,5.147l2.661,2.015
		c1.769,1.34,3.555,2.671,5.354,3.971l2.87,2.061c1.985,1.387,3.989,2.75,6.011,4.091l2.184,1.473l0.607,0.41
		c1.913,1.257,3.881,2.46,5.836,3.663l2.527,1.599c3.009,1.797,6.059,3.584,9.14,5.308l2.527,1.352
		c2.268,1.238,4.549,2.46,6.858,3.646l3.797,1.86l4.909,2.418l1.131,0.521l2.009,0.919c2.569,1.164,5.162,2.311,7.78,3.418
		l1.642,0.695c2.997,1.245,6.023,2.438,9.074,3.584l2.215,0.821c2.821,1.039,5.685,2.05,8.561,3.008l1.077,0.353
		c3.152,1.052,6.341,2.016,9.548,2.969l2.304,0.65c3.261,0.936,6.493,2.042,9.855,2.636
		c213.911,36.994,276.046-121.907,276.046-121.907c-52.188,64.48-144.815,81.484-232.581,62.552
		c-3.327-0.714-6.553-1.701-9.795-2.604l-2.442-0.707c-3.165-0.918-6.312-1.883-9.434-2.909l-1.294-0.44
		c-2.798-0.935-5.56-1.917-8.315-2.927l-2.334-0.867c-3.015-1.13-6.017-2.312-8.978-3.538l-1.792-0.76
		c-2.545-1.09-5.066-2.191-7.575-3.337l-2.19-1c-1.967-0.906-3.911-1.871-5.86-2.823l-3.905-1.946
		c-2.376-1.198-4.705-2.454-7.021-3.731l-2.371-1.251c-3.086-1.729-6.131-3.509-9.145-5.317l-2.468-1.558
		c-2.184-1.335-4.362-2.699-6.503-4.104l-2.1-1.396c-2.07-1.382-4.122-2.791-6.149-4.212l-2.726-1.957
		c-1.865-1.353-3.718-2.716-5.547-4.114l-2.473-1.883c-2.334-1.814-4.639-3.652-6.913-5.529l-0.759-0.6
		c-2.46-2.048-4.879-4.153-7.268-6.264l-2.045-1.873c-1.769-1.592-3.514-3.201-5.222-4.856l-2.046-1.94
		c-2.178-2.111-4.314-4.25-6.408-6.425l-0.319-0.324c-2.214-2.294-4.38-4.64-6.498-7.014l-1.703-1.917
		c-1.583-1.803-3.147-3.641-4.675-5.484l-1.714-2.025c-1.847-2.266-3.641-4.526-5.403-6.819
		c-48.723-63.037-66.232-149.977-27.286-221.375 M418.938,208.032c-31.985,43.653-30.252,102.103-5.294,148.266
		c4.182,7.738,8.886,15.253,14.145,22.397c4.789,6.523,10.107,14.272,16.468,19.504c2.304,2.408,4.716,4.759,7.178,7.064
		l1.889,1.774c2.389,2.197,4.82,4.36,7.328,6.46l0.301,0.245l0.073,0.069c2.779,2.311,5.649,4.531,8.562,6.722l1.943,1.438
		c2.925,2.123,5.903,4.211,8.959,6.202l0.258,0.189l4.092,2.55l1.937,1.215c2.186,1.33,4.393,2.62,6.644,3.857l0.938,0.526
		c1.938,1.055,3.898,2.094,5.866,3.11l2.087,1.027l4.104,2.02l0.621,0.268c2.821,1.313,5.661,2.585,8.568,3.784l1.888,0.742
		c2.323,0.93,4.664,1.843,7.021,2.699l3.009,1.051c2.143,0.753,4.284,1.443,6.45,2.128l2.912,0.884
		c3.075,0.902,6.118,2.049,9.321,2.557c165.157,25.946,203.284-94.656,203.284-94.656c-34.367,46.951-100.93,69.349-171.958,51.864
		c-3.15-0.788-6.268-1.644-9.354-2.562l-2.813-0.861c-2.194-0.668-4.379-1.387-6.538-2.134l-2.954-1.044
		c-2.372-0.868-4.718-1.763-7.046-2.699l-1.896-0.759c-2.917-1.204-5.788-2.477-8.615-3.801l-4.32-2.083l-2.49-1.215
		c-1.841-0.947-3.67-1.929-5.47-2.933l-1.305-0.703c-2.238-1.238-4.441-2.51-6.619-3.834l-1.997-1.261l-4.285-2.694
		c-3.043-1.991-6.01-4.074-8.927-6.191l-2.011-1.506c-31.088-23.276-55.732-55.094-67.447-91.169
		c-12.28-37.416-9.632-79.414,11.643-113.503 M534.417,170.08c-18.856,26.318-20.71,59.009-7.624,88.077
		c13.798,30.854,42.069,55.054,75.071,66.535l4.104,1.341l1.803,0.548c1.945,0.582,3.877,1.255,5.886,1.609
		c91.196,16.714,115.931-44.377,122.513-53.376c-21.666,29.587-58.08,36.691-102.759,26.403c-3.526-0.81-7.408-2.02-10.807-3.167
		c-4.363-1.478-8.659-3.155-12.84-5.055c-7.931-3.618-15.493-8-22.509-13.022c-39.98-28.77-64.812-83.647-38.723-128.345"/>
	<path fill="#131B28" d="M513.888,691.786h-25.426c-1.408,0-2.81,1.073-3.111,2.379l-9.025,39.602l-9.024,39.602
		c-0.295,1.308-1.697,2.38-3.105,2.38H446.2c-17.804,0-15.746-11.68-12.1-27.681l0.107-0.485l0.397-2.021l0.072-0.376l0.812-4.107
		l0.873-4.4l0.926-4.479l4.103-19.015l4.109-19.013c0.283-1.312-0.643-2.39-2.051-2.39h-26.095c-1.407,0-2.803,1.072-3.093,2.384
		l-5.613,25.245l-5.607,25.251l-0.013,0.034l-0.517,2.35c-6.462,27.979-4.753,54.667,30.372,55.505l1.023,0.018h55.131
		c1.408,0,2.81-1.072,3.104-2.379l11.89-53.006l11.89-53.012C516.217,692.859,515.302,691.792,513.888,691.786z M241.597,691.506
		h-27.918c-1.415,0-2.822,1.073-3.135,2.375l-2.646,11.081l-2.647,11.082c-0.307,1.306,0.589,2.373,2.004,2.373h28.134
		c1.413,0,2.815-1.072,3.117-2.378l2.557-11.077l2.557-11.076C243.913,692.579,243.01,691.506,241.597,691.506z M233.498,725.995
		h-28.141c-1.408,0-2.821,1.072-3.134,2.374l-3.953,16.605l-3.948,16.599l-1.101,4.76l-3.797,16.946l-3.79,16.954
		c-0.294,1.307-0.902,3.419-1.354,4.685c0,0-5.259,14.837-14.098,14.666l-1.107-0.023l-7.647-0.133h-0.006
		c-1.407-0.016-2.821,1.029-3.152,2.324l-2.918,11.635l-2.912,11.629c-0.331,1.303,0.56,2.375,1.961,2.397
		c5.012,0.057,16.24,0.177,23.032,0.177c22.076,0,33.718-11.602,41.172-44.983l8.731-38.311l8.188-35.933
		C235.82,727.067,234.905,725.995,233.498,725.995z M751.639,717.013l-1.169-4.569l-1.15-4.68l-0.582-2.362
		c-2.286-8.429-8.995-13.283-23.567-13.283l-22.683-0.023l-20.89-0.029h-23.507c-1.409,0-2.805,1.072-3.1,2.38l-1.041,4.656
		l-1.226,5.501l-0.345,1.547l-10.584,47.019l-10.048,44.636c-0.299,1.312-0.396,2.921-0.229,3.571
		c0.169,0.655,2.883,1.192,4.291,1.192h21.202c1.415,0,3.201-0.239,3.971-0.537c0.771-0.295,1.908-2.927,2.19-4.232l3.767-17.685
		l3.772-17.689l0.006-0.028l0.506-2.356l4.572-20.314l4.037-17.939c0.301-1.309,1.691-2.375,3.098-2.38l66.719-0.029
		C751.066,719.388,751.957,718.32,751.639,717.013L751.639,717.013z M837.525,675.7l-5.138,0.017h-21.353
		c-1.415,0-3.227,0.908-4.016,2.015l-47.224,65.611c-0.795,1.107-1.702,0.946-2.015-0.354l-3.478-14.454
		c-0.313-1.307-1.729-2.374-3.142-2.374h-30.355c-1.414,0-2.249,1.051-1.863,2.334l13.602,45.2c0.387,1.289,0.417,3.4,0.067,4.702
		l-5.927,21.871c-0.354,1.302,0.513,2.356,1.926,2.356h30.005c1.408,0,2.853-1.061,3.201-2.356l5.933-21.871
		c0.35-1.308,1.329-3.236,2.184-4.309l76.664-96.5c0.856-1.071,0.393-1.944-1.016-1.934L837.525,675.7z M596.341,732.301v-0.022
		c-0.175,1.448-1.589,2.516-3.003,2.516h-38.489c-1.335,0-2.009-0.856-1.81-1.917l0.036-0.085l-0.024,0.011l0.019-0.12l0.173-0.622
		c3.677-9.267,11.162-15.35,25.235-15.35C594.325,716.705,597.418,724.044,596.341,732.301L596.341,732.301z M585.047,690.166
		c-49.404,0-61.112,28.439-67.681,57.148c-6.564,29.261-6.006,56.611,45.124,56.611h6.197l1.541-0.006h0.361l6.137-0.018h0.107
		c13.501-0.051,27.046-0.147,32.527-0.188c1.401-0.022,2.772-1.091,3.062-2.396l2.07-9.592l0.403-1.867l2.466-11.445
		c0.283-1.308-0.638-2.387-2.052-2.387H569.35c-18.285,0-23.712-4.604-21.708-18.15h73.471l-0.006,0.005l0.047-0.005
		c1.168-0.018,2.25-0.783,2.678-1.798l0.175-0.606l-0.007,0.006C634.906,716.453,631.778,690.171,585.047,690.166L585.047,690.166z
		 M351.54,732.152l-0.699,2.334v0.006l-5.547,18.647l-5.547,18.643c-0.379,1.295-1.853,2.346-3.268,2.346h-29.361
		c-22.273,0-27.701-16.526-22.273-40.892c5.421-24.924,16.052-40.417,37.978-41.987C352.784,689.104,358.777,709.088,351.54,732.152
		L351.54,732.152z M371.683,772.695c0,0,13.844-31.886,16.985-50.295c4.29-24.646-8.724-60.401-58.988-60.401
		c-49.974,0-71.683,34.13-79.961,71.237c-8.279,37.377,2.569,70.148,52.261,69.879l39.205-0.137l36.636-0.126
		c1.407-0.011,2.852-1.072,3.212-2.362l6.385-23.087c0.354-1.302-0.506-2.362-1.92-2.374l-6.12-0.034l-6.119-0.035
		c-1.197-0.006-1.883-0.746-1.738-1.724L371.683,772.695z M619.09,751.349c0,0.885-0.752,1.604-1.686,1.604
		c-0.928,0-1.685-0.719-1.685-1.604c0-0.88,0.751-1.594,1.685-1.594S619.09,750.469,619.09,751.349z"/>
</g>
</svg>
