<?xml version="1.0" encoding="utf-8"?>
<!-- Generator: Adobe Illustrator 16.0.0, SVG Export Plug-In . SVG Version: 6.00 Build 0)  -->
<!DOCTYPE svg PUBLIC "-//W3C//DTD SVG 1.1//EN" "http://www.w3.org/Graphics/SVG/1.1/DTD/svg11.dtd">
<svg version="1.1" id="圖層_1" xmlns="http://www.w3.org/2000/svg" xmlns:xlink="http://www.w3.org/1999/xlink" x="0px" y="0px"
	 width="695.05px" height="695.05px" viewBox="152.475 152.475 695.05 695.05"
	 enable-background="new 152.475 152.475 695.05 695.05" xml:space="preserve">
<g>
	<path fill="#00618A" d="M152.11,648.468h23.051v-91.031l35.688,79.359c4.208,9.607,9.971,13.002,21.278,13.002
		s16.851-3.395,21.059-13.002l35.688-79.359v91.031h23.051v-90.88c0-8.865-3.546-13.159-10.864-15.369
		c-17.512-5.466-29.263-0.735-34.582,11.088l-35.021,78.322l-33.909-78.328c-5.101-11.817-17.069-16.548-34.583-11.088
		c-7.317,2.216-10.863,6.504-10.863,15.369v90.886H152.11z M331.098,574.365h23.045v50.153c-0.213,2.722,0.875,9.119,13.501,9.321
		c6.441,0.101,49.727,0,50.131,0v-59.721h23.102c0.107,0-0.022,81.441-0.022,81.778c0.124,20.089-24.92,24.448-36.468,24.785
		h-72.789v-15.51c0.124,0,72.739,0.017,72.918-0.006c14.842-1.565,13.085-8.938,13.08-11.419v-6.049h-48.993
		c-22.792-0.207-37.315-10.156-37.5-21.604C331.092,625.046,331.603,574.87,331.098,574.365L331.098,574.365z"/>
	<path fill="#E48E00" d="M458.648,648.468h66.279c7.761,0,15.303-1.621,21.284-4.428c9.972-4.578,14.847-10.784,14.847-18.92
		v-16.846c0-6.649-5.538-12.86-16.401-16.991c-5.763-2.223-12.86-3.395-19.734-3.395H496.99c-9.31,0-13.742-2.806-14.847-9.012
		c-0.219-0.74-0.219-1.33-0.219-2.07v-10.493c0-0.59,0-1.185,0.219-1.92c1.105-4.729,3.546-6.06,11.75-6.801l2.216-0.146h65.837
		v-15.363H497.22c-9.309,0-14.186,0.589-18.619,1.919c-13.742,4.287-19.735,11.082-19.735,22.905v13.444
		c0,10.348,11.756,19.213,31.479,21.284c2.222,0.14,4.433,0.298,6.649,0.298h23.943c0.887,0,1.773,0,2.441,0.14
		c7.317,0.589,10.414,1.924,12.637,4.578c1.33,1.33,1.768,2.666,1.768,4.136v13.45c0,1.622-1.106,3.692-3.322,5.466
		c-1.992,1.773-5.319,2.957-9.752,3.255l-2.441,0.146h-63.62V648.468L458.648,648.468z M704.876,621.725
		c0,15.807,11.75,24.673,35.463,26.452c2.217,0.146,4.434,0.291,6.65,0.291h60.073v-15.363h-60.511
		c-13.523,0-18.619-3.4-18.619-11.531v-79.5h-23.051v79.651H704.876z M575.772,622.521v-54.794c0-13.916,9.774-22.361,29.1-25.026
		c1.997-0.297,4.226-0.443,6.217-0.443h43.763c2.223,0,4.22,0.146,6.436,0.443c19.326,2.665,29.106,11.104,29.106,25.026v54.794
		c0,11.301-4.152,17.339-13.72,21.277l22.715,20.498h-26.771l-18.372-16.587l-18.494,1.173h-24.662
		c-4.22,0-8.657-0.589-13.545-1.924C582.881,642.963,575.772,635.26,575.772,622.521L575.772,622.521z M600.652,621.191
		c0,0.741,0.219,1.487,0.443,2.374c1.33,6.368,7.334,9.921,16.436,9.921h20.941l-19.235-17.367h26.771l16.771,15.15
		c3.098-1.655,5.129-4.17,5.842-7.406c0.219-0.741,0.219-1.481,0.219-2.223v-52.566c0-0.589,0-1.336-0.219-2.076
		c-1.336-5.926-7.335-9.326-16.217-9.326h-34.88c-10.213,0-16.879,4.444-16.879,11.402v52.117H600.652z"/>
	<path fill="#00618A" d="M827.343,516.569c-14.169-0.388-24.993,0.932-34.251,4.831c-2.633,1.111-6.824,1.14-7.25,4.433
		c1.441,1.521,1.666,3.782,2.816,5.646c2.211,3.574,5.942,8.366,9.27,10.875c3.631,2.744,7.379,5.685,11.284,8.063
		c6.931,4.23,14.674,6.643,21.356,10.874c3.935,2.503,7.84,5.646,11.683,8.468c1.902,1.386,3.171,3.558,5.646,4.427v-0.397
		c-1.297-1.65-1.633-3.917-2.822-5.646l-5.241-5.241c-5.123-6.801-11.621-12.766-18.54-17.726
		c-5.51-3.956-17.844-9.304-20.145-15.718l-0.404-0.398c3.906-0.443,8.485-1.857,12.087-2.822
		c6.062-1.627,11.476-1.206,17.732-2.822l8.461-2.424v-1.605c-3.158-3.243-5.42-7.541-8.865-10.476
		c-9.017-7.682-18.87-15.358-29.011-21.766c-5.622-3.547-12.574-5.853-18.539-8.86c-1.997-1.016-5.521-1.538-6.852-3.227
		c-3.137-3.99-4.837-9.046-7.256-13.697c-5.05-9.735-10.021-20.374-14.505-30.627c-3.052-6.985-5.05-13.876-8.86-20.144
		c-18.298-30.082-37.993-48.24-68.502-66.084c-6.492-3.8-14.309-5.292-22.563-7.25l-13.299-0.809
		c-2.699-1.128-5.517-4.438-8.059-6.043c-10.111-6.386-36.035-20.273-43.521-2.009c-4.724,11.525,7.071,22.771,11.285,28.611
		c2.957,4.097,6.75,8.687,8.866,13.294c1.391,3.029,1.627,6.065,2.822,9.27c2.923,7.89,5.477,16.48,9.265,23.77
		c1.913,3.692,4.028,7.581,6.446,10.88c1.481,2.021,4.029,2.918,4.428,6.043c-2.486,3.479-2.632,8.889-4.029,13.294
		c-6.295,19.858-3.922,44.542,5.241,59.238c2.811,4.517,9.433,14.191,18.534,10.476c7.963-3.243,6.189-13.293,8.467-22.164
		c0.517-2.003,0.196-3.484,1.207-4.831v0.403l7.255,14.505c5.371,8.647,14.893,17.676,22.968,23.775
		c4.186,3.159,7.485,8.63,12.895,10.476v-0.409h-0.398c-1.056-1.633-2.688-2.306-4.035-3.625c-3.152-3.092-6.66-6.93-9.264-10.476
		c-7.345-9.966-13.832-20.88-19.746-32.237c-2.822-5.42-5.274-11.401-7.654-16.924c-0.92-2.126-0.908-5.347-2.816-6.441
		c-2.615,4.04-6.447,7.312-8.467,12.087c-3.222,7.631-3.637,16.94-4.831,26.591l-0.809,0.399c-5.617-1.353-7.587-7.132-9.674-12.087
		c-5.274-12.529-6.257-32.713-1.61-47.141c1.2-3.736,6.626-15.492,4.427-18.943c-1.049-3.439-4.512-5.426-6.441-8.063
		c-2.396-3.248-4.792-7.524-6.448-11.284c-4.319-9.769-6.334-20.739-10.874-30.62c-2.177-4.726-5.847-9.5-8.865-13.697
		c-3.339-4.657-7.082-8.08-9.675-13.703c-0.92-1.998-2.171-5.201-0.808-7.255c0.432-1.386,1.055-1.965,2.424-2.419
		c2.335-1.801,8.844,0.601,11.279,1.61c6.464,2.688,11.856,5.241,17.333,8.866c2.626,1.745,5.28,5.111,8.462,6.043h3.625
		c5.673,1.302,12.03,0.398,17.327,2.009c9.37,2.851,17.766,7.278,25.386,12.093c23.225,14.668,42.208,35.541,55.203,60.444
		c2.088,4.012,2.997,7.834,4.832,12.087c3.715,8.573,8.394,17.4,12.087,25.789c3.686,8.366,7.283,16.812,12.495,23.775
		c2.738,3.658,13.321,5.622,18.131,7.653c3.372,1.425,8.894,2.912,12.086,4.832c6.1,3.681,12.015,8.063,17.732,12.092
		C818.111,508.512,826.904,512.928,827.343,516.569L827.343,516.569z M647.227,363.051c-2.952-0.057-5.045,0.325-7.256,0.808v0.398
		h0.404c1.408,2.901,3.894,4.765,5.64,7.256l4.034,8.462l0.398-0.398c2.497-1.757,3.636-4.567,3.625-8.866
		c-1.005-1.055-1.151-2.373-2.015-3.625C650.913,365.401,648.68,364.459,647.227,363.051z"/>
</g>
</svg>
