<?xml version="1.0" encoding="utf-8"?>
<!-- Generator: Adobe Illustrator 16.0.0, SVG Export Plug-In . SVG Version: 6.00 Build 0)  -->
<!DOCTYPE svg PUBLIC "-//W3C//DTD SVG 1.1//EN" "http://www.w3.org/Graphics/SVG/1.1/DTD/svg11.dtd">
<svg version="1.1" id="圖層_1" xmlns="http://www.w3.org/2000/svg" xmlns:xlink="http://www.w3.org/1999/xlink" x="0px" y="0px"
	 width="695.05px" height="695.05px" viewBox="902.475 871.475 695.05 695.05"
	 enable-background="new 902.475 871.475 695.05 695.05" xml:space="preserve">
<g>
	
		<radialGradient id="SVGID_1_" cx="566.5181" cy="1390.7471" r="0.2107" gradientTransform="matrix(2291.6716 0 0 -2218.7549 -1297131 3086774.5)" gradientUnits="userSpaceOnUse">
		<stop  offset="0" style="stop-color:#34364E;stop-opacity:0.98"/>
		<stop  offset="1" style="stop-color:#0C0824"/>
	</radialGradient>
	<path fill="url(#SVGID_1_)" d="M931.436,909.123h637.13v619.754h-637.13V909.123z"/>
	<path fill="#31C5F0" d="M931.436,909.123h637.13v619.754h-637.13V909.123z M902.475,1557.838h695.05V880.163h-695.05V1557.838z
		 M1371.055,1158.183c-22.879,0-30.697,11.584-30.697,21.142c0,10.425,5.212,17.665,35.911,33.594
		c45.467,22.011,59.658,43.149,59.658,74.139c0,46.337-35.331,71.243-83.117,71.243c-25.194,0-46.916-5.215-59.368-12.452
		c-2.027-0.869-2.317-2.317-2.317-4.636v-42.571c0-2.896,1.448-3.766,3.477-2.316c18.244,11.874,39.096,17.087,58.209,17.087
		c22.88,0,32.436-9.558,32.436-22.59c0-10.426-6.66-19.692-35.911-34.754c-41.124-19.691-58.21-39.674-58.21-72.979
		c0-37.36,29.251-68.347,79.931-68.347c24.907,0,42.282,3.766,51.84,8.109c2.316,1.448,2.896,3.765,2.896,5.792v39.675
		c0,2.317-1.448,3.766-4.345,2.896C1408.702,1163.107,1389.878,1158.183,1371.055,1158.183L1371.055,1158.183z M1121.995,1192.646
		c6.661,0.579,11.875,0.579,23.458,0.579c33.885,0,65.741-11.873,65.741-57.92c0-36.779-22.879-55.314-61.396-55.314
		c-11.584,0-22.59,0.579-27.803,0.868V1192.646z M1070.447,1038.865c0-2.026,4.055-3.476,6.37-3.476
		c18.536-0.869,46.048-1.447,74.718-1.447c80.22,0,111.497,44.019,111.497,100.203c0,73.56-53.287,105.126-118.737,105.126
		c-11.004,0-14.769-0.579-22.59-0.579V1349.9c0,2.317-0.869,3.475-3.475,3.475h-44.31c-2.316,0-3.476-0.868-3.476-3.475v-311.035
		H1070.447z"/>
</g>
</svg>
